<svg xmlns="http://www.w3.org/2000/svg" viewBox="125 127 774 346" width="774" height="346">
  <path fill="rgb(247,98,51)" d="M519.64 436 L279.5 436 A154.5 154.5 0 0 1 279.5 127 L744.5 127 A154.5 154.5 0 0 1 744.5 436 L598.67 436 c22.566 -15.934 29.771 -28.222 1.97 -49.3 L744.5 386.7 A105.2 105.2 0 0 0 744.5 176.3 L279.5 176.3 A105.2 105.2 0 0 0 279.5 386.7 L521.95 386.7 c-1.681 -10.424 -8.284 -27.725 -6.086 -35.174 c7.178 -7.372 13.448 -0.462 20.302 5.119 c8.432 5.992 67.232 47.861 69.201 51.706 c0.234 2.546 0.638 5.442 -1.298 7.037 c-11.285 9.279 -25.599 18.106 -37.703 26.333 c-13.571 9.224 -26.512 18.867 -39.956 27.891 c-5.164 3.949 -10.833 5.805 -16.197 -0.423 c-1.033 -3.202 -0.859 -3.83 -0.418 -6.873 Z"/>
</svg>
